<svg xmlns="http://www.w3.org/2000/svg" xmlns:xlink="http://www.w3.org/1999/xlink" width="500" zoomAndPan="magnify" viewBox="0 0 375 374.999991" height="500" preserveAspectRatio="xMidYMid meet" version="1.0"><defs><g/><clipPath id="3fe52d5cda"><path d="M 22 15.757812 L 353 15.757812 L 353 359.257812 L 22 359.257812 Z M 22 15.757812 " clip-rule="nonzero"/></clipPath><clipPath id="2c2a781fa9"><path d="M 232 211 L 246.792969 211 L 246.792969 226 L 232 226 Z M 232 211 " clip-rule="nonzero"/></clipPath><clipPath id="379cca317d"><path d="M 128.292969 211 L 143 211 L 143 226 L 128.292969 226 Z M 128.292969 211 " clip-rule="nonzero"/></clipPath><clipPath id="7fb1fc954d"><path d="M 159 113.261719 L 215 113.261719 L 215 151 L 159 151 Z M 159 113.261719 " clip-rule="nonzero"/></clipPath><clipPath id="65724516f3"><path d="M 131 141 L 244 141 L 244 253.511719 L 131 253.511719 Z M 131 141 " clip-rule="nonzero"/></clipPath></defs><rect x="-37.5" width="450" fill="#ffffff" y="-37.499999" height="449.999989" fill-opacity="1"/><rect x="-37.5" width="450" fill="#ffffff" y="-37.499999" height="449.999989" fill-opacity="1"/><g clip-path="url(#3fe52d5cda)"><path fill="#b71a8c" d="M 345.085938 187.546875 C 345.085938 169.792969 356.238281 150.449219 351.058594 134.449219 C 345.644531 117.8125 325.089844 108.816406 315.050781 94.964844 C 304.855469 81.035156 302.625 58.742188 288.605469 48.554688 C 274.742188 38.523438 252.914062 43.140625 236.265625 37.726562 C 220.25 32.554688 205.355469 15.757812 187.589844 15.757812 C 169.824219 15.757812 154.925781 32.554688 138.914062 37.726562 C 122.265625 43.140625 100.4375 38.445312 86.574219 48.554688 C 72.554688 58.742188 70.242188 81.035156 60.125 94.964844 C 50.089844 108.816406 29.457031 117.8125 24.117188 134.449219 C 18.941406 150.449219 30.09375 169.792969 30.09375 187.546875 C 30.09375 205.296875 18.941406 224.644531 24.117188 240.644531 C 29.457031 257.203125 50.007812 266.195312 60.125 280.046875 C 70.324219 293.980469 72.554688 316.347656 86.574219 326.457031 C 100.4375 336.488281 122.265625 331.871094 138.914062 337.285156 C 154.925781 342.460938 169.824219 359.257812 187.589844 359.257812 C 205.355469 359.257812 220.25 342.460938 236.265625 337.285156 C 252.914062 331.871094 274.742188 336.570312 288.605469 326.457031 C 302.542969 316.269531 304.855469 293.980469 315.050781 280.046875 C 325.089844 266.195312 345.722656 257.203125 351.058594 240.5625 C 356.316406 224.5625 345.085938 205.296875 345.085938 187.546875 Z M 345.085938 187.546875 " fill-opacity="1" fill-rule="nonzero"/></g><path fill="#f35dc2" d="M 187.589844 342.699219 C 177.632812 342.699219 168.789062 337.125 160.183594 331.714844 C 154.527344 328.128906 149.113281 324.707031 143.535156 322.957031 C 137.640625 321.046875 130.789062 320.566406 124.175781 320.089844 C 114.21875 319.375 103.941406 318.65625 96.292969 313.085938 C 88.566406 307.433594 84.664062 297.878906 80.917969 288.566406 C 78.449219 282.4375 75.898438 276.148438 72.316406 271.210938 C 68.808594 266.355469 63.632812 262.058594 58.613281 257.839844 C 50.886719 251.390625 42.839844 244.703125 39.890625 235.46875 C 37.023438 226.632812 39.492188 216.761719 41.882812 207.210938 C 43.476562 200.679688 45.230469 193.914062 45.230469 187.546875 C 45.230469 181.179688 43.554688 174.410156 41.882812 167.882812 C 39.492188 158.332031 37.023438 148.378906 39.890625 139.625 C 42.917969 130.390625 50.886719 123.703125 58.613281 117.253906 C 63.632812 113.113281 68.808594 108.738281 72.316406 103.878906 C 75.898438 98.945312 78.449219 92.65625 80.917969 86.527344 C 84.664062 77.210938 88.566406 67.660156 96.292969 62.007812 C 103.941406 56.433594 114.21875 55.71875 124.175781 55.003906 C 130.789062 54.523438 137.640625 54.046875 143.535156 52.136719 C 149.113281 50.304688 154.449219 46.960938 160.183594 43.378906 C 168.789062 37.964844 177.632812 32.394531 187.589844 32.394531 C 197.546875 32.394531 206.390625 37.964844 214.992188 43.378906 C 220.648438 46.960938 226.066406 50.386719 231.644531 52.136719 C 237.539062 54.046875 244.390625 54.523438 251.003906 55.003906 C 260.960938 55.71875 271.238281 56.433594 278.882812 62.007812 C 286.613281 67.660156 290.515625 77.210938 294.257812 86.527344 C 296.730469 92.65625 299.277344 98.945312 302.863281 103.878906 C 306.367188 108.738281 311.546875 113.035156 316.566406 117.253906 C 324.292969 123.703125 332.339844 130.390625 335.285156 139.625 C 338.15625 148.460938 335.683594 158.332031 333.296875 167.882812 C 331.703125 174.410156 329.949219 181.179688 329.949219 187.546875 C 329.949219 193.914062 331.621094 200.679688 333.296875 207.210938 C 335.683594 216.761719 338.15625 226.710938 335.285156 235.46875 C 332.257812 244.703125 324.292969 251.390625 316.566406 257.839844 C 311.546875 261.976562 306.367188 266.355469 302.863281 271.210938 C 299.277344 276.148438 296.730469 282.4375 294.257812 288.566406 C 290.515625 297.878906 286.613281 307.433594 278.882812 313.085938 C 271.238281 318.65625 260.960938 319.375 251.003906 320.089844 C 244.390625 320.566406 237.539062 321.046875 231.644531 322.957031 C 226.066406 324.789062 220.730469 328.128906 214.992188 331.714844 C 206.390625 337.046875 197.546875 342.699219 187.589844 342.699219 Z M 187.589844 34.78125 C 178.347656 34.78125 169.746094 40.195312 161.460938 45.371094 C 155.882812 48.871094 150.148438 52.535156 144.253906 54.367188 C 138.039062 56.355469 131.109375 56.832031 124.335938 57.3125 C 114.296875 58.027344 104.816406 58.664062 97.648438 63.839844 C 90.480469 69.09375 86.734375 78.328125 83.070312 87.324219 C 80.519531 93.53125 77.972656 100.058594 74.148438 105.234375 C 70.402344 110.328125 65.144531 114.707031 60.046875 119.003906 C 52.558594 125.214844 44.832031 131.664062 42.042969 140.261719 C 39.414062 148.378906 41.644531 157.535156 44.113281 167.246094 C 45.785156 173.933594 47.460938 180.859375 47.460938 187.464844 C 47.460938 194.074219 45.707031 201 44.113281 207.6875 C 41.722656 217.398438 39.414062 226.472656 42.042969 234.671875 C 44.832031 243.269531 52.558594 249.71875 60.046875 255.929688 C 65.144531 260.226562 70.484375 264.605469 74.148438 269.699219 C 77.890625 274.875 80.519531 281.324219 83.070312 287.609375 C 86.65625 296.605469 90.398438 305.839844 97.648438 311.09375 C 104.738281 316.269531 114.21875 316.90625 124.335938 317.621094 C 131.109375 318.101562 138.117188 318.578125 144.253906 320.566406 C 150.148438 322.480469 155.882812 326.0625 161.460938 329.5625 C 169.746094 334.816406 178.347656 340.152344 187.589844 340.152344 C 196.832031 340.152344 205.433594 334.738281 213.71875 329.5625 C 219.296875 326.0625 225.03125 322.398438 230.925781 320.566406 C 237.140625 318.578125 244.070312 318.101562 250.84375 317.621094 C 260.878906 316.90625 270.359375 316.269531 277.53125 311.09375 C 284.699219 305.839844 288.445312 296.605469 292.109375 287.609375 C 294.65625 281.402344 297.207031 274.875 301.03125 269.699219 C 304.777344 264.605469 310.035156 260.226562 315.132812 255.929688 C 322.621094 249.71875 330.347656 243.269531 333.136719 234.671875 C 335.765625 226.554688 333.535156 217.398438 331.066406 207.6875 C 329.390625 201 327.71875 194.074219 327.71875 187.464844 C 327.71875 180.78125 329.472656 173.933594 331.066406 167.246094 C 333.453125 157.535156 335.765625 148.460938 333.136719 140.261719 C 330.347656 131.664062 322.621094 125.214844 315.132812 119.003906 C 310.035156 114.707031 304.695312 110.328125 301.03125 105.234375 C 297.285156 100.058594 294.65625 93.609375 292.109375 87.324219 C 288.523438 78.328125 284.78125 69.09375 277.53125 63.839844 C 270.441406 58.664062 260.960938 58.027344 250.84375 57.3125 C 244.070312 56.832031 237.0625 56.355469 230.925781 54.367188 C 225.03125 52.453125 219.296875 48.871094 213.71875 45.371094 C 205.355469 40.117188 196.832031 34.78125 187.589844 34.78125 Z M 187.589844 34.78125 " fill-opacity="1" fill-rule="nonzero"/><g clip-path="url(#2c2a781fa9)"><path fill="#f9ab9e" d="M 246.789062 218.226562 C 246.789062 222.082031 243.65625 225.207031 239.789062 225.207031 C 235.921875 225.207031 232.785156 222.082031 232.785156 218.226562 C 232.785156 214.371094 235.921875 211.242188 239.789062 211.242188 C 243.65625 211.242188 246.789062 214.371094 246.789062 218.226562 " fill-opacity="1" fill-rule="nonzero"/></g><g clip-path="url(#379cca317d)"><path fill="#f9ab9e" d="M 142.296875 218.226562 C 142.296875 222.082031 139.160156 225.207031 135.296875 225.207031 C 131.429688 225.207031 128.292969 222.082031 128.292969 218.226562 C 128.292969 214.371094 131.429688 211.242188 135.296875 211.242188 C 139.160156 211.242188 142.296875 214.371094 142.296875 218.226562 " fill-opacity="1" fill-rule="nonzero"/></g><g clip-path="url(#7fb1fc954d)"><path fill="#d3d2d2" d="M 187.300781 143.09375 C 196.71875 143.09375 205.621094 145.679688 213.320312 150.164062 C 214.394531 147.230469 214.980469 144.0625 214.980469 140.761719 C 214.980469 125.621094 202.671875 113.34375 187.488281 113.34375 C 172.300781 113.34375 159.992188 125.621094 159.992188 140.761719 C 159.992188 144 160.558594 147.105469 161.589844 149.988281 C 169.222656 145.613281 178.011719 143.09375 187.300781 143.09375 " fill-opacity="1" fill-rule="nonzero"/></g><g clip-path="url(#65724516f3)"><path fill="#f9ab9e" d="M 243.800781 197.277344 C 243.800781 228.289062 218.585938 253.429688 187.488281 253.429688 C 156.386719 253.429688 131.175781 228.289062 131.175781 197.277344 C 131.175781 166.265625 156.386719 141.125 187.488281 141.125 C 218.585938 141.125 243.800781 166.265625 243.800781 197.277344 " fill-opacity="1" fill-rule="nonzero"/></g><path fill="#ef2e41" d="M 160.335938 147.765625 C 163.625 144.128906 167.894531 141.566406 172.460938 139.792969 C 177.039062 138.03125 181.988281 137.175781 186.921875 137.171875 C 191.851562 137.167969 196.800781 138.023438 201.382812 139.785156 C 205.949219 141.554688 210.21875 144.121094 213.507812 147.765625 C 211.0625 147.445312 208.78125 147.03125 206.515625 146.699219 C 204.257812 146.363281 202.054688 146.058594 199.867188 145.820312 C 195.5 145.347656 191.214844 145.085938 186.921875 145.082031 C 182.621094 145.074219 178.339844 145.339844 173.96875 145.8125 C 171.78125 146.046875 169.574219 146.351562 167.320312 146.695312 C 165.058594 147.023438 162.773438 147.4375 160.335938 147.765625 " fill-opacity="1" fill-rule="nonzero"/><path fill="#d3d2d2" d="M 244.199219 197.019531 C 244.199219 165.964844 218.464844 141.019531 187.277344 140.984375 L 187.25 140.984375 L 187.25 183.324219 C 189.558594 189.015625 196.136719 208.703125 242.003906 211.867188 C 243.261719 207.203125 244.199219 202.074219 244.199219 197.019531 " fill-opacity="1" fill-rule="nonzero"/><path fill="#d3d2d2" d="M 130.773438 197.25 C 130.773438 166.195312 156.046875 141.019531 187.234375 140.984375 L 187.261719 140.984375 L 187.261719 183.324219 C 184.957031 189.015625 178.886719 208.691406 133.015625 211.855469 C 131.757812 207.195312 130.773438 202.304688 130.773438 197.25 " fill-opacity="1" fill-rule="nonzero"/><path fill="#4b1615" d="M 204.71875 220.078125 C 204.71875 219.292969 205.035156 218.59375 205.550781 218.078125 C 206.066406 217.566406 206.769531 217.253906 207.554688 217.25 C 208.339844 217.253906 209.042969 217.566406 209.558594 218.078125 C 210.074219 218.59375 210.390625 219.292969 210.390625 220.078125 C 210.390625 220.546875 210.769531 220.925781 211.238281 220.925781 C 211.707031 220.925781 212.089844 220.546875 212.089844 220.078125 C 212.089844 217.578125 210.0625 215.554688 207.554688 215.554688 C 205.050781 215.554688 203.019531 217.578125 203.019531 220.078125 C 203.019531 220.546875 203.402344 220.925781 203.871094 220.925781 C 204.339844 220.925781 204.71875 220.546875 204.71875 220.078125 " fill-opacity="1" fill-rule="nonzero"/><path fill="#4b1615" d="M 164.582031 220.078125 C 164.582031 219.292969 164.898438 218.59375 165.414062 218.078125 C 165.929688 217.566406 166.632812 217.253906 167.417969 217.25 C 168.203125 217.253906 168.90625 217.566406 169.421875 218.078125 C 169.9375 218.59375 170.253906 219.292969 170.253906 220.078125 C 170.253906 220.546875 170.632812 220.925781 171.105469 220.925781 C 171.574219 220.925781 171.953125 220.546875 171.953125 220.078125 C 171.953125 217.578125 169.921875 215.554688 167.417969 215.554688 C 164.914062 215.554688 162.882812 217.578125 162.882812 220.078125 C 162.882812 220.546875 163.261719 220.925781 163.730469 220.925781 C 164.203125 220.925781 164.582031 220.546875 164.582031 220.078125 " fill-opacity="1" fill-rule="nonzero"/><path fill="#c38562" d="M 190.492188 230.0625 L 183.695312 229.851562 L 187.136719 219.152344 L 188.214844 219.496094 L 185.234375 228.769531 L 190.527344 228.933594 L 190.492188 230.0625 " fill-opacity="1" fill-rule="nonzero"/><path fill="#f57f91" d="M 215.949219 231.664062 C 215.949219 234.628906 212.101562 237.035156 207.351562 237.035156 C 202.601562 237.035156 198.753906 234.628906 198.753906 231.664062 C 198.753906 228.699219 202.601562 226.292969 207.351562 226.292969 C 212.101562 226.292969 215.949219 228.699219 215.949219 231.664062 " fill-opacity="1" fill-rule="nonzero"/><path fill="#f57f91" d="M 176.21875 231.664062 C 176.21875 234.628906 172.371094 237.035156 167.621094 237.035156 C 162.875 237.035156 159.023438 234.628906 159.023438 231.664062 C 159.023438 228.699219 162.875 226.292969 167.621094 226.292969 C 172.371094 226.292969 176.21875 228.699219 176.21875 231.664062 " fill-opacity="1" fill-rule="nonzero"/><path fill="#4b1615" d="M 176.921875 239.71875 C 176.957031 239.777344 177.738281 241.136719 179.441406 242.503906 C 180.292969 243.183594 181.378906 243.867188 182.714844 244.378906 C 184.050781 244.894531 185.632812 245.230469 187.460938 245.230469 C 189.335938 245.230469 190.945312 244.894531 192.292969 244.382812 C 194.320312 243.613281 195.75 242.457031 196.679688 241.492188 C 197.605469 240.527344 198.035156 239.75 198.0625 239.699219 C 198.285156 239.289062 198.132812 238.773438 197.71875 238.550781 C 197.304688 238.328125 196.789062 238.480469 196.566406 238.894531 L 196.875 239.058594 L 196.566406 238.890625 L 196.566406 238.894531 L 196.875 239.058594 L 196.566406 238.890625 C 196.5625 238.902344 195.898438 240.082031 194.441406 241.234375 C 193.710938 241.8125 192.785156 242.386719 191.632812 242.816406 C 190.484375 243.246094 189.105469 243.535156 187.460938 243.535156 C 185.84375 243.535156 184.476562 243.238281 183.328125 242.796875 C 181.601562 242.136719 180.363281 241.140625 179.550781 240.3125 C 179.148438 239.902344 178.851562 239.53125 178.664062 239.269531 C 178.566406 239.136719 178.496094 239.035156 178.453125 238.964844 L 178.40625 238.890625 L 178.398438 238.875 L 178.328125 238.917969 L 178.398438 238.875 L 178.328125 238.917969 L 178.398438 238.875 C 178.167969 238.46875 177.648438 238.328125 177.242188 238.558594 C 176.832031 238.792969 176.6875 239.308594 176.921875 239.71875 " fill-opacity="1" fill-rule="nonzero"/><path fill="#ef2e41" d="M 223.839844 219.980469 L 222.988281 219.980469 C 222.988281 224.238281 221.261719 228.085938 218.464844 230.875 C 215.667969 233.664062 211.808594 235.386719 207.542969 235.386719 C 203.273438 235.386719 199.414062 233.664062 196.617188 230.875 C 193.820312 228.085938 192.09375 224.238281 192.09375 219.980469 C 192.09375 215.726562 193.820312 211.882812 196.617188 209.089844 C 199.414062 206.300781 203.273438 204.578125 207.542969 204.578125 C 211.808594 204.578125 215.667969 206.300781 218.464844 209.089844 C 221.261719 211.882812 222.988281 215.726562 222.988281 219.980469 L 224.691406 219.980469 C 224.6875 210.539062 217.011719 202.882812 207.542969 202.882812 C 198.070312 202.882812 190.390625 210.539062 190.390625 219.980469 C 190.390625 229.429688 198.070312 237.082031 207.542969 237.082031 C 217.011719 237.082031 224.6875 229.429688 224.691406 219.980469 L 223.839844 219.980469 " fill-opacity="1" fill-rule="nonzero"/><path fill="#ef2e41" d="M 183.730469 219.980469 L 182.882812 219.980469 C 182.878906 224.238281 181.152344 228.085938 178.355469 230.875 C 175.558594 233.664062 171.703125 235.386719 167.433594 235.386719 C 163.164062 235.386719 159.304688 233.664062 156.507812 230.875 C 153.710938 228.085938 151.984375 224.238281 151.984375 219.980469 C 151.984375 215.726562 153.710938 211.882812 156.507812 209.089844 C 159.304688 206.300781 163.164062 204.578125 167.433594 204.578125 C 171.703125 204.578125 175.558594 206.300781 178.355469 209.089844 C 181.152344 211.882812 182.878906 215.726562 182.882812 219.980469 L 184.582031 219.980469 C 184.582031 210.539062 176.902344 202.882812 167.433594 202.882812 C 157.960938 202.882812 150.285156 210.539062 150.285156 219.980469 C 150.285156 229.429688 157.960938 237.082031 167.433594 237.082031 C 176.902344 237.082031 184.582031 229.429688 184.582031 219.980469 L 183.730469 219.980469 " fill-opacity="1" fill-rule="nonzero"/><path fill="#ef2e41" d="M 183.5625 218.5625 L 191.335938 218.5625 C 191.800781 218.5625 192.179688 218.183594 192.179688 217.722656 C 192.179688 217.257812 191.800781 216.878906 191.335938 216.878906 L 183.5625 216.878906 C 183.097656 216.878906 182.722656 217.257812 182.722656 217.722656 C 182.722656 218.183594 183.097656 218.5625 183.5625 218.5625 " fill-opacity="1" fill-rule="nonzero"/><path fill="#ef2e41" d="M 224.3125 218.796875 L 242.027344 212.433594 C 242.46875 212.277344 242.695312 211.796875 242.535156 211.359375 C 242.378906 210.921875 241.894531 210.699219 241.457031 210.855469 L 223.742188 217.214844 C 223.304688 217.371094 223.074219 217.851562 223.234375 218.289062 C 223.390625 218.726562 223.875 218.953125 224.3125 218.796875 " fill-opacity="1" fill-rule="nonzero"/><path fill="#ef2e41" d="M 151.042969 217.214844 L 133.324219 210.855469 C 132.886719 210.699219 132.402344 210.921875 132.246094 211.359375 C 132.089844 211.796875 132.316406 212.277344 132.753906 212.433594 L 150.46875 218.796875 C 150.910156 218.953125 151.390625 218.726562 151.550781 218.289062 C 151.707031 217.851562 151.480469 217.371094 151.042969 217.214844 " fill-opacity="1" fill-rule="nonzero"/><path fill="#ef2e41" d="M 242.191406 224.371094 C 242.191406 225.636719 241.160156 226.664062 239.890625 226.664062 C 238.625 226.664062 237.59375 225.636719 237.59375 224.371094 C 237.59375 223.105469 238.625 222.082031 239.890625 222.082031 C 241.160156 222.082031 242.191406 223.105469 242.191406 224.371094 " fill-opacity="1" fill-rule="nonzero"/><path fill="#ef2e41" d="M 136.652344 224.371094 C 136.652344 225.636719 135.625 226.664062 134.355469 226.664062 C 133.085938 226.664062 132.054688 225.636719 132.054688 224.371094 C 132.054688 223.105469 133.085938 222.082031 134.355469 222.082031 C 135.625 222.082031 136.652344 223.105469 136.652344 224.371094 " fill-opacity="1" fill-rule="nonzero"/><g fill="#ffffff" fill-opacity="1"><g transform="translate(107.166988, 116.739003)"><g><path d="M -2.0625 -10.9375 L -8.34375 -23.90625 C -9.988281 -27.320312 -10.285156 -30.273438 -9.234375 -32.765625 C -8.191406 -35.253906 -6.203125 -37.210938 -3.265625 -38.640625 C -0.222656 -40.109375 2.585938 -40.539062 5.171875 -39.9375 C 7.753906 -39.34375 9.617188 -37.859375 10.765625 -35.484375 C 11.234375 -34.535156 11.367188 -33.800781 11.171875 -33.28125 C 10.984375 -32.757812 10.457031 -32.289062 9.59375 -31.875 C 8.039062 -31.125 7.003906 -31.265625 6.484375 -32.296875 C 4.765625 -35.390625 2.253906 -36.132812 -1.046875 -34.53125 C -4.609375 -32.8125 -5.460938 -30.035156 -3.609375 -26.203125 L 2.671875 -13.234375 C 4.523438 -9.398438 7.265625 -8.363281 10.890625 -10.125 C 11.960938 -10.632812 12.78125 -11.21875 13.34375 -11.875 C 13.90625 -12.53125 14.195312 -13.226562 14.21875 -13.96875 C 14.238281 -14.71875 14.203125 -15.34375 14.109375 -15.84375 C 14.015625 -16.351562 13.835938 -16.945312 13.578125 -17.625 C 13.160156 -18.707031 13.679688 -19.601562 15.140625 -20.3125 C 16.003906 -20.726562 16.703125 -20.859375 17.234375 -20.703125 C 17.773438 -20.546875 18.273438 -19.992188 18.734375 -19.046875 C 19.921875 -16.578125 19.953125 -14.113281 18.828125 -11.65625 C 17.710938 -9.207031 15.632812 -7.25 12.59375 -5.78125 C 9.664062 -4.351562 6.90625 -4 4.3125 -4.71875 C 1.71875 -5.445312 -0.40625 -7.519531 -2.0625 -10.9375 Z M -2.0625 -10.9375 "/></g></g></g><g fill="#ffffff" fill-opacity="1"><g transform="translate(133.120131, 104.504421)"><g><path d="M 2.671875 -2.5625 L -6.328125 -34.078125 C -6.484375 -34.617188 -6.351562 -35.09375 -5.9375 -35.5 C -5.53125 -35.914062 -4.972656 -36.222656 -4.265625 -36.421875 C -3.566406 -36.628906 -2.929688 -36.664062 -2.359375 -36.53125 C -1.796875 -36.40625 -1.4375 -36.070312 -1.28125 -35.53125 L 6.90625 -6.828125 L 19.28125 -10.359375 C 19.769531 -10.492188 20.207031 -10.375 20.59375 -10 C 20.988281 -9.632812 21.269531 -9.148438 21.4375 -8.546875 C 21.613281 -7.953125 21.632812 -7.390625 21.5 -6.859375 C 21.363281 -6.335938 21.050781 -6.007812 20.5625 -5.875 L 5.375 -1.53125 C 4.78125 -1.363281 4.21875 -1.363281 3.6875 -1.53125 C 3.15625 -1.707031 2.816406 -2.050781 2.671875 -2.5625 Z M 2.671875 -2.5625 "/></g></g></g><g fill="#ffffff" fill-opacity="1"><g transform="translate(157.73909, 97.548538)"><g><path d="M 3.0625 -2.078125 L -0.46875 -34.625 C -0.519531 -35.144531 -0.335938 -35.582031 0.078125 -35.9375 C 0.503906 -36.300781 1.03125 -36.519531 1.65625 -36.59375 L 19.171875 -38.484375 C 19.734375 -38.546875 20.1875 -38.363281 20.53125 -37.9375 C 20.882812 -37.507812 21.09375 -37 21.15625 -36.40625 C 21.226562 -35.75 21.128906 -35.175781 20.859375 -34.6875 C 20.597656 -34.195312 20.203125 -33.921875 19.671875 -33.859375 L 5.0625 -32.28125 L 6.296875 -21 L 13.875 -21.8125 C 14.40625 -21.875 14.84375 -21.71875 15.1875 -21.34375 C 15.539062 -20.96875 15.75 -20.484375 15.8125 -19.890625 C 15.875 -19.367188 15.78125 -18.882812 15.53125 -18.4375 C 15.28125 -18 14.875 -17.75 14.3125 -17.6875 L 6.734375 -16.875 L 7.96875 -5.546875 L 22.578125 -7.125 C 23.109375 -7.1875 23.550781 -7.003906 23.90625 -6.578125 C 24.269531 -6.148438 24.488281 -5.609375 24.5625 -4.953125 C 24.625 -4.359375 24.53125 -3.816406 24.28125 -3.328125 C 24.039062 -2.835938 23.640625 -2.5625 23.078125 -2.5 L 5.5625 -0.609375 C 4.9375 -0.535156 4.378906 -0.628906 3.890625 -0.890625 C 3.398438 -1.160156 3.125 -1.554688 3.0625 -2.078125 Z M 3.0625 -2.078125 "/></g></g></g><g fill="#ffffff" fill-opacity="1"><g transform="translate(185.198584, 94.592814)"><g><path d="M 3.9375 -10.484375 L 5.78125 -34.171875 C 5.820312 -34.734375 6.109375 -35.132812 6.640625 -35.375 C 7.171875 -35.613281 7.796875 -35.703125 8.515625 -35.640625 C 9.242188 -35.585938 9.851562 -35.398438 10.34375 -35.078125 C 10.832031 -34.765625 11.054688 -34.328125 11.015625 -33.765625 L 9.171875 -10.078125 C 9.003906 -7.941406 9.40625 -6.300781 10.375 -5.15625 C 11.351562 -4.019531 12.796875 -3.378906 14.703125 -3.234375 C 18.753906 -2.921875 20.941406 -4.890625 21.265625 -9.140625 L 23.109375 -32.828125 C 23.148438 -33.390625 23.4375 -33.789062 23.96875 -34.03125 C 24.5 -34.269531 25.125 -34.359375 25.84375 -34.296875 C 26.570312 -34.242188 27.179688 -34.054688 27.671875 -33.734375 C 28.160156 -33.421875 28.382812 -32.984375 28.34375 -32.421875 L 26.5 -8.734375 C 26.207031 -4.941406 24.960938 -2.234375 22.765625 -0.609375 C 20.578125 1.003906 17.769531 1.675781 14.34375 1.40625 C 10.957031 1.144531 8.300781 0.046875 6.375 -1.890625 C 4.457031 -3.828125 3.644531 -6.691406 3.9375 -10.484375 Z M 3.9375 -10.484375 "/></g></g></g><g fill="#ffffff" fill-opacity="1"><g transform="translate(215.553142, 97.118555)"><g><path d="M 3.59375 -0.75 L 12.328125 -32.390625 C 12.453125 -32.835938 12.773438 -33.160156 13.296875 -33.359375 C 13.816406 -33.554688 14.394531 -33.570312 15.03125 -33.40625 L 23.484375 -31.0625 C 26.722656 -30.164062 29.082031 -28.585938 30.5625 -26.328125 C 32.050781 -24.066406 32.289062 -21.109375 31.28125 -17.453125 L 27.515625 -3.84375 C 26.503906 -0.1875 24.78125 2.226562 22.34375 3.40625 C 19.914062 4.582031 17.082031 4.722656 13.84375 3.828125 L 5.390625 1.484375 C 4.753906 1.316406 4.265625 1.015625 3.921875 0.578125 C 3.578125 0.140625 3.46875 -0.300781 3.59375 -0.75 Z M 9.4375 -2.21875 L 15.078125 -0.65625 C 18.859375 0.382812 21.316406 -1.144531 22.453125 -5.25 L 26.21875 -18.859375 C 27.351562 -22.960938 26.03125 -25.535156 22.25 -26.578125 L 16.609375 -28.140625 Z M 9.4375 -2.21875 "/></g></g></g><g fill="#ffffff" fill-opacity="1"><g transform="translate(244.488017, 105.395033)"><g><path d="M 3.703125 -0.125 L 18.03125 -29.546875 C 18.257812 -30.015625 18.648438 -30.289062 19.203125 -30.375 C 19.765625 -30.457031 20.328125 -30.363281 20.890625 -30.09375 L 36.734375 -22.375 C 37.234375 -22.125 37.515625 -21.722656 37.578125 -21.171875 C 37.648438 -20.628906 37.554688 -20.09375 37.296875 -19.5625 C 37.003906 -18.957031 36.613281 -18.519531 36.125 -18.25 C 35.644531 -17.976562 35.164062 -17.957031 34.6875 -18.1875 L 21.46875 -24.625 L 16.5 -14.421875 L 23.359375 -11.09375 C 23.828125 -10.851562 24.113281 -10.476562 24.21875 -9.96875 C 24.320312 -9.46875 24.242188 -8.953125 23.984375 -8.421875 C 23.742188 -7.941406 23.398438 -7.582031 22.953125 -7.34375 C 22.515625 -7.101562 22.046875 -7.109375 21.546875 -7.359375 L 14.6875 -10.6875 L 9.703125 -0.453125 L 22.921875 5.984375 C 23.398438 6.210938 23.675781 6.601562 23.75 7.15625 C 23.832031 7.71875 23.726562 8.296875 23.4375 8.890625 C 23.175781 9.421875 22.804688 9.828125 22.328125 10.109375 C 21.859375 10.398438 21.375 10.421875 20.875 10.171875 L 5.03125 2.453125 C 4.46875 2.179688 4.046875 1.800781 3.765625 1.3125 C 3.484375 0.832031 3.460938 0.351562 3.703125 -0.125 Z M 3.703125 -0.125 "/></g></g></g><g fill="#ffffff" fill-opacity="1"><g transform="translate(87.689771, 254.588746)"><g><path d="M 24.71875 -5.75 C 24.53125 -5.957031 24.265625 -6.160156 23.921875 -6.359375 C 23.578125 -6.566406 23.15625 -6.710938 22.65625 -6.796875 C 22.15625 -6.890625 21.554688 -6.882812 20.859375 -6.78125 C 20.171875 -6.675781 19.382812 -6.425781 18.5 -6.03125 C 17.613281 -5.644531 16.613281 -5.082031 15.5 -4.34375 C 14.394531 -3.601562 13.175781 -2.640625 11.84375 -1.453125 C 10.5625 -0.316406 9.515625 0.734375 8.703125 1.703125 C 7.898438 2.671875 7.273438 3.5625 6.828125 4.375 C 6.378906 5.195312 6.078125 5.941406 5.921875 6.609375 C 5.765625 7.285156 5.71875 7.890625 5.78125 8.421875 C 5.84375 8.960938 5.976562 9.4375 6.1875 9.84375 C 6.394531 10.257812 6.625 10.613281 6.875 10.90625 C 7.15625 11.21875 7.476562 11.492188 7.84375 11.734375 C 8.207031 11.972656 8.597656 12.175781 9.015625 12.34375 C 9.429688 12.519531 9.867188 12.648438 10.328125 12.734375 C 10.796875 12.828125 11.269531 12.875 11.75 12.875 L 11.703125 13.859375 C 11.191406 13.890625 10.632812 13.875 10.03125 13.8125 C 9.4375 13.75 8.820312 13.609375 8.1875 13.390625 C 7.5625 13.179688 6.925781 12.875 6.28125 12.46875 C 5.632812 12.0625 5.019531 11.53125 4.4375 10.875 C 3.519531 9.84375 2.859375 8.707031 2.453125 7.46875 C 2.054688 6.238281 1.984375 4.921875 2.234375 3.515625 C 2.484375 2.117188 3.085938 0.65625 4.046875 -0.875 C 5.015625 -2.40625 6.398438 -3.972656 8.203125 -5.578125 C 9.910156 -7.097656 11.578125 -8.234375 13.203125 -8.984375 C 14.835938 -9.734375 16.382812 -10.148438 17.84375 -10.234375 C 19.3125 -10.328125 20.671875 -10.109375 21.921875 -9.578125 C 23.179688 -9.054688 24.269531 -8.285156 25.1875 -7.265625 C 25.800781 -6.578125 26.289062 -5.894531 26.65625 -5.21875 C 27.019531 -4.539062 27.257812 -3.882812 27.375 -3.25 C 27.5 -2.613281 27.476562 -2.019531 27.3125 -1.46875 C 27.144531 -0.925781 26.832031 -0.445312 26.375 -0.03125 C 26.15625 0.15625 25.898438 0.316406 25.609375 0.453125 C 25.316406 0.585938 25.003906 0.664062 24.671875 0.6875 C 24.347656 0.71875 24.03125 0.679688 23.71875 0.578125 C 23.414062 0.472656 23.140625 0.273438 22.890625 -0.015625 C 22.671875 -0.265625 22.550781 -0.503906 22.53125 -0.734375 C 22.519531 -0.960938 22.570312 -1.191406 22.6875 -1.421875 C 22.8125 -1.660156 22.976562 -1.890625 23.1875 -2.109375 C 23.40625 -2.335938 23.632812 -2.5625 23.875 -2.78125 C 24.113281 -3.007812 24.335938 -3.242188 24.546875 -3.484375 C 24.753906 -3.722656 24.910156 -3.957031 25.015625 -4.1875 C 25.117188 -4.425781 25.15625 -4.675781 25.125 -4.9375 C 25.101562 -5.195312 24.96875 -5.46875 24.71875 -5.75 Z M 24.71875 -5.75 "/></g></g></g><g fill="#ffffff" fill-opacity="1"><g transform="translate(103.612731, 271.613704)"><g><path d="M 5.734375 -5.796875 C 6.585938 -6.890625 7.488281 -7.722656 8.4375 -8.296875 C 9.394531 -8.867188 10.347656 -9.222656 11.296875 -9.359375 C 12.253906 -9.492188 13.1875 -9.421875 14.09375 -9.140625 C 15.007812 -8.867188 15.847656 -8.4375 16.609375 -7.84375 C 17.378906 -7.25 18.015625 -6.550781 18.515625 -5.75 C 19.015625 -4.957031 19.320312 -4.09375 19.4375 -3.15625 C 19.5625 -2.21875 19.46875 -1.222656 19.15625 -0.171875 C 18.851562 0.867188 18.273438 1.9375 17.421875 3.03125 C 16.578125 4.113281 15.664062 4.953125 14.6875 5.546875 C 13.71875 6.148438 12.742188 6.53125 11.765625 6.6875 C 10.796875 6.84375 9.847656 6.796875 8.921875 6.546875 C 7.992188 6.304688 7.144531 5.890625 6.375 5.296875 C 5.613281 4.703125 4.992188 3.988281 4.515625 3.15625 C 4.035156 2.332031 3.742188 1.441406 3.640625 0.484375 C 3.546875 -0.472656 3.660156 -1.484375 3.984375 -2.546875 C 4.304688 -3.617188 4.890625 -4.703125 5.734375 -5.796875 Z M 13.5 0.046875 C 14.019531 -0.609375 14.5 -1.265625 14.9375 -1.921875 C 15.375 -2.578125 15.710938 -3.195312 15.953125 -3.78125 C 16.191406 -4.375 16.300781 -4.910156 16.28125 -5.390625 C 16.257812 -5.867188 16.039062 -6.265625 15.625 -6.578125 C 15.21875 -6.890625 14.769531 -6.992188 14.28125 -6.890625 C 13.789062 -6.785156 13.285156 -6.535156 12.765625 -6.140625 C 12.253906 -5.753906 11.726562 -5.257812 11.1875 -4.65625 C 10.65625 -4.0625 10.128906 -3.429688 9.609375 -2.765625 C 9.097656 -2.097656 8.613281 -1.425781 8.15625 -0.75 C 7.695312 -0.0820312 7.34375 0.546875 7.09375 1.140625 C 6.84375 1.742188 6.722656 2.296875 6.734375 2.796875 C 6.742188 3.296875 6.953125 3.703125 7.359375 4.015625 C 7.773438 4.328125 8.226562 4.421875 8.71875 4.296875 C 9.21875 4.179688 9.734375 3.921875 10.265625 3.515625 C 10.804688 3.109375 11.351562 2.59375 11.90625 1.96875 C 12.457031 1.351562 12.988281 0.710938 13.5 0.046875 Z M 13.5 0.046875 "/></g></g></g><g fill="#ffffff" fill-opacity="1"><g transform="translate(121.195489, 284.489286)"><g><path d="M 6.796875 2.234375 C 6.734375 2.347656 6.628906 2.476562 6.484375 2.625 C 6.347656 2.78125 6.160156 2.890625 5.921875 2.953125 C 5.691406 3.023438 5.40625 3.03125 5.0625 2.96875 C 4.71875 2.90625 4.300781 2.738281 3.8125 2.46875 C 3.332031 2.1875 2.984375 1.910156 2.765625 1.640625 C 2.554688 1.367188 2.429688 1.113281 2.390625 0.875 C 2.347656 0.644531 2.359375 0.4375 2.421875 0.25 C 2.484375 0.0703125 2.539062 -0.0625 2.59375 -0.15625 L 8.640625 -10.765625 C 8.785156 -11.023438 8.847656 -11.289062 8.828125 -11.5625 C 8.816406 -11.832031 8.671875 -12.050781 8.390625 -12.21875 C 8.234375 -12.300781 8.082031 -12.347656 7.9375 -12.359375 C 7.789062 -12.378906 7.628906 -12.375 7.453125 -12.34375 L 7.359375 -12.84375 C 7.660156 -12.894531 7.988281 -12.929688 8.34375 -12.953125 C 8.707031 -12.972656 9.078125 -12.960938 9.453125 -12.921875 C 9.828125 -12.878906 10.210938 -12.796875 10.609375 -12.671875 C 11.003906 -12.554688 11.394531 -12.390625 11.78125 -12.171875 C 12.375 -11.828125 12.789062 -11.484375 13.03125 -11.140625 C 13.269531 -10.796875 13.398438 -10.460938 13.421875 -10.140625 C 13.441406 -9.816406 13.390625 -9.507812 13.265625 -9.21875 C 13.148438 -8.9375 13.035156 -8.695312 12.921875 -8.5 Z M 11.359375 -16.5625 C 11.503906 -16.8125 11.703125 -17.019531 11.953125 -17.1875 C 12.210938 -17.351562 12.492188 -17.460938 12.796875 -17.515625 C 13.097656 -17.578125 13.410156 -17.582031 13.734375 -17.53125 C 14.066406 -17.476562 14.390625 -17.363281 14.703125 -17.1875 C 15.023438 -17 15.289062 -16.773438 15.5 -16.515625 C 15.707031 -16.265625 15.863281 -15.992188 15.96875 -15.703125 C 16.070312 -15.421875 16.113281 -15.128906 16.09375 -14.828125 C 16.070312 -14.535156 15.988281 -14.265625 15.84375 -14.015625 C 15.6875 -13.742188 15.488281 -13.523438 15.25 -13.359375 C 15.007812 -13.191406 14.738281 -13.078125 14.4375 -13.015625 C 14.132812 -12.960938 13.820312 -12.960938 13.5 -13.015625 C 13.175781 -13.066406 12.851562 -13.1875 12.53125 -13.375 C 12.21875 -13.550781 11.953125 -13.765625 11.734375 -14.015625 C 11.523438 -14.273438 11.367188 -14.546875 11.265625 -14.828125 C 11.160156 -15.117188 11.109375 -15.410156 11.109375 -15.703125 C 11.117188 -16.003906 11.203125 -16.289062 11.359375 -16.5625 Z M 11.359375 -16.5625 "/></g></g></g><g fill="#ffffff" fill-opacity="1"><g transform="translate(133.490512, 291.255885)"><g><path d="M 12.3125 -11.28125 C 12.082031 -11.375 11.859375 -11.429688 11.640625 -11.453125 C 11.421875 -11.484375 11.203125 -11.460938 10.984375 -11.390625 C 10.773438 -11.328125 10.582031 -11.210938 10.40625 -11.046875 C 10.238281 -10.878906 10.101562 -10.660156 10 -10.390625 C 9.84375 -10.015625 9.828125 -9.582031 9.953125 -9.09375 C 10.078125 -8.601562 10.257812 -8.070312 10.5 -7.5 C 10.75 -6.925781 11.023438 -6.320312 11.328125 -5.6875 C 11.628906 -5.0625 11.882812 -4.414062 12.09375 -3.75 C 12.300781 -3.09375 12.429688 -2.4375 12.484375 -1.78125 C 12.535156 -1.125 12.429688 -0.484375 12.171875 0.140625 C 11.890625 0.835938 11.515625 1.410156 11.046875 1.859375 C 10.585938 2.304688 10.054688 2.628906 9.453125 2.828125 C 8.859375 3.023438 8.203125 3.09375 7.484375 3.03125 C 6.773438 2.96875 6.035156 2.773438 5.265625 2.453125 C 4.585938 2.171875 4.015625 1.820312 3.546875 1.40625 C 3.085938 1 2.703125 0.566406 2.390625 0.109375 C 2.078125 -0.347656 1.832031 -0.796875 1.65625 -1.234375 C 1.488281 -1.671875 1.375 -2.046875 1.3125 -2.359375 L 2 -2.515625 C 2.0625 -2.316406 2.148438 -2.09375 2.265625 -1.84375 C 2.390625 -1.59375 2.539062 -1.34375 2.71875 -1.09375 C 2.894531 -0.84375 3.097656 -0.617188 3.328125 -0.421875 C 3.566406 -0.222656 3.828125 -0.0625 4.109375 0.0625 C 4.816406 0.351562 5.460938 0.425781 6.046875 0.28125 C 6.640625 0.132812 7.070312 -0.269531 7.34375 -0.9375 C 7.5 -1.300781 7.535156 -1.734375 7.453125 -2.234375 C 7.367188 -2.734375 7.226562 -3.269531 7.03125 -3.84375 C 6.832031 -4.414062 6.609375 -5.015625 6.359375 -5.640625 C 6.117188 -6.265625 5.910156 -6.890625 5.734375 -7.515625 C 5.566406 -8.140625 5.46875 -8.753906 5.4375 -9.359375 C 5.414062 -9.972656 5.515625 -10.550781 5.734375 -11.09375 C 5.992188 -11.707031 6.335938 -12.191406 6.765625 -12.546875 C 7.203125 -12.910156 7.691406 -13.15625 8.234375 -13.28125 C 8.773438 -13.414062 9.34375 -13.445312 9.9375 -13.375 C 10.53125 -13.300781 11.109375 -13.148438 11.671875 -12.921875 C 12.316406 -12.648438 12.882812 -12.34375 13.375 -12 C 13.863281 -11.664062 14.25 -11.296875 14.53125 -10.890625 C 14.820312 -10.492188 14.992188 -10.070312 15.046875 -9.625 C 15.109375 -9.175781 15.046875 -8.71875 14.859375 -8.25 C 14.703125 -7.875 14.441406 -7.597656 14.078125 -7.421875 C 13.722656 -7.253906 13.332031 -7.265625 12.90625 -7.453125 C 12.476562 -7.628906 12.191406 -7.847656 12.046875 -8.109375 C 11.898438 -8.378906 11.894531 -8.675781 12.03125 -9 C 12.113281 -9.195312 12.226562 -9.332031 12.375 -9.40625 C 12.53125 -9.476562 12.6875 -9.523438 12.84375 -9.546875 C 13 -9.566406 13.132812 -9.582031 13.25 -9.59375 C 13.375 -9.601562 13.457031 -9.660156 13.5 -9.765625 C 13.613281 -10.035156 13.554688 -10.304688 13.328125 -10.578125 C 13.109375 -10.859375 12.769531 -11.09375 12.3125 -11.28125 Z M 12.3125 -11.28125 "/></g></g></g><g fill="#ffffff" fill-opacity="1"><g transform="translate(149.889001, 297.771082)"><g><path d="M 10.765625 -5.8125 C 10.828125 -6.070312 10.789062 -6.289062 10.65625 -6.46875 C 10.53125 -6.644531 10.335938 -6.765625 10.078125 -6.828125 C 9.722656 -6.910156 9.363281 -6.90625 9 -6.8125 C 8.632812 -6.726562 8.285156 -6.554688 7.953125 -6.296875 C 7.628906 -6.046875 7.34375 -5.703125 7.09375 -5.265625 C 6.84375 -4.835938 6.640625 -4.316406 6.484375 -3.703125 C 6.335938 -3.097656 6.257812 -2.59375 6.25 -2.1875 C 6.25 -1.78125 6.296875 -1.441406 6.390625 -1.171875 C 6.492188 -0.910156 6.628906 -0.707031 6.796875 -0.5625 C 6.960938 -0.414062 7.148438 -0.316406 7.359375 -0.265625 C 7.628906 -0.203125 7.898438 -0.210938 8.171875 -0.296875 C 8.441406 -0.390625 8.691406 -0.519531 8.921875 -0.6875 C 9.148438 -0.851562 9.347656 -1.054688 9.515625 -1.296875 C 9.679688 -1.546875 9.796875 -1.800781 9.859375 -2.0625 Z M 9.953125 -13.140625 C 9.597656 -13.222656 9.265625 -13.257812 8.953125 -13.25 C 8.640625 -13.238281 8.359375 -13.195312 8.109375 -13.125 C 7.859375 -13.0625 7.65625 -12.96875 7.5 -12.84375 C 7.34375 -12.726562 7.25 -12.601562 7.21875 -12.46875 C 7.175781 -12.320312 7.222656 -12.191406 7.359375 -12.078125 C 7.503906 -11.972656 7.664062 -11.851562 7.84375 -11.71875 C 8.019531 -11.582031 8.164062 -11.414062 8.28125 -11.21875 C 8.40625 -11.019531 8.425781 -10.757812 8.34375 -10.4375 C 8.289062 -10.226562 8.195312 -10.039062 8.0625 -9.875 C 7.9375 -9.71875 7.785156 -9.585938 7.609375 -9.484375 C 7.429688 -9.390625 7.226562 -9.328125 7 -9.296875 C 6.78125 -9.265625 6.566406 -9.273438 6.359375 -9.328125 C 5.773438 -9.460938 5.351562 -9.769531 5.09375 -10.25 C 4.832031 -10.726562 4.78125 -11.285156 4.9375 -11.921875 C 5.09375 -12.546875 5.390625 -13.039062 5.828125 -13.40625 C 6.265625 -13.78125 6.78125 -14.046875 7.375 -14.203125 C 7.976562 -14.359375 8.628906 -14.425781 9.328125 -14.40625 C 10.023438 -14.382812 10.707031 -14.296875 11.375 -14.140625 C 12.175781 -13.941406 12.914062 -13.664062 13.59375 -13.3125 C 14.28125 -12.957031 14.859375 -12.523438 15.328125 -12.015625 C 15.796875 -11.503906 16.125 -10.914062 16.3125 -10.25 C 16.5 -9.59375 16.492188 -8.847656 16.296875 -8.015625 L 14.1875 0.671875 C 14.164062 0.765625 14.144531 0.867188 14.125 0.984375 C 14.113281 1.097656 14.117188 1.203125 14.140625 1.296875 C 14.160156 1.398438 14.203125 1.492188 14.265625 1.578125 C 14.335938 1.660156 14.453125 1.722656 14.609375 1.765625 C 14.785156 1.804688 14.96875 1.773438 15.15625 1.671875 C 15.34375 1.578125 15.523438 1.472656 15.703125 1.359375 L 16 1.765625 C 15.800781 1.953125 15.5625 2.144531 15.28125 2.34375 C 15 2.550781 14.675781 2.726562 14.3125 2.875 C 13.945312 3.019531 13.539062 3.125 13.09375 3.1875 C 12.65625 3.25 12.171875 3.210938 11.640625 3.078125 C 10.992188 2.921875 10.46875 2.585938 10.0625 2.078125 C 9.65625 1.578125 9.472656 0.910156 9.515625 0.078125 C 9.066406 0.441406 8.628906 0.726562 8.203125 0.9375 C 7.785156 1.15625 7.367188 1.304688 6.953125 1.390625 C 6.546875 1.484375 6.144531 1.523438 5.75 1.515625 C 5.351562 1.515625 4.96875 1.46875 4.59375 1.375 C 4.101562 1.257812 3.644531 1.066406 3.21875 0.796875 C 2.789062 0.523438 2.4375 0.179688 2.15625 -0.234375 C 1.875 -0.660156 1.691406 -1.164062 1.609375 -1.75 C 1.523438 -2.332031 1.570312 -3.007812 1.75 -3.78125 C 1.976562 -4.707031 2.347656 -5.421875 2.859375 -5.921875 C 3.367188 -6.429688 3.96875 -6.816406 4.65625 -7.078125 C 5.351562 -7.335938 6.117188 -7.515625 6.953125 -7.609375 C 7.796875 -7.710938 8.648438 -7.828125 9.515625 -7.953125 C 10.171875 -8.046875 10.691406 -8.289062 11.078125 -8.6875 C 11.460938 -9.09375 11.71875 -9.535156 11.84375 -10.015625 C 12.019531 -10.773438 11.941406 -11.4375 11.609375 -12 C 11.273438 -12.570312 10.722656 -12.953125 9.953125 -13.140625 Z M 9.953125 -13.140625 "/></g></g></g><g fill="#ffffff" fill-opacity="1"><g transform="translate(170.896101, 302.272581)"><g><path d="M 8.25 -14.515625 C 8.019531 -14.535156 7.789062 -14.519531 7.5625 -14.46875 C 7.34375 -14.425781 7.144531 -14.34375 6.96875 -14.21875 C 6.789062 -14.09375 6.644531 -13.925781 6.53125 -13.71875 C 6.414062 -13.507812 6.347656 -13.257812 6.328125 -12.96875 C 6.296875 -12.5625 6.414062 -12.144531 6.6875 -11.71875 C 6.957031 -11.289062 7.296875 -10.835938 7.703125 -10.359375 C 8.109375 -9.890625 8.550781 -9.398438 9.03125 -8.890625 C 9.507812 -8.378906 9.953125 -7.84375 10.359375 -7.28125 C 10.765625 -6.71875 11.09375 -6.128906 11.34375 -5.515625 C 11.59375 -4.910156 11.691406 -4.269531 11.640625 -3.59375 C 11.578125 -2.84375 11.390625 -2.179688 11.078125 -1.609375 C 10.773438 -1.046875 10.367188 -0.578125 9.859375 -0.203125 C 9.347656 0.171875 8.742188 0.4375 8.046875 0.59375 C 7.347656 0.75 6.585938 0.789062 5.765625 0.71875 C 5.035156 0.664062 4.382812 0.507812 3.8125 0.25 C 3.238281 0 2.738281 -0.289062 2.3125 -0.625 C 1.882812 -0.96875 1.519531 -1.320312 1.21875 -1.6875 C 0.914062 -2.050781 0.6875 -2.367188 0.53125 -2.640625 L 1.125 -2.984375 C 1.25 -2.816406 1.40625 -2.632812 1.59375 -2.4375 C 1.789062 -2.25 2.007812 -2.0625 2.25 -1.875 C 2.488281 -1.695312 2.75 -1.546875 3.03125 -1.421875 C 3.320312 -1.296875 3.625 -1.222656 3.9375 -1.203125 C 4.695312 -1.140625 5.332031 -1.265625 5.84375 -1.578125 C 6.363281 -1.898438 6.648438 -2.421875 6.703125 -3.140625 C 6.734375 -3.535156 6.632812 -3.957031 6.40625 -4.40625 C 6.175781 -4.863281 5.878906 -5.332031 5.515625 -5.8125 C 5.148438 -6.300781 4.753906 -6.800781 4.328125 -7.3125 C 3.910156 -7.832031 3.523438 -8.363281 3.171875 -8.90625 C 2.816406 -9.457031 2.53125 -10.019531 2.3125 -10.59375 C 2.09375 -11.175781 2.007812 -11.753906 2.0625 -12.328125 C 2.113281 -12.992188 2.289062 -13.5625 2.59375 -14.03125 C 2.90625 -14.5 3.296875 -14.878906 3.765625 -15.171875 C 4.234375 -15.460938 4.765625 -15.660156 5.359375 -15.765625 C 5.953125 -15.878906 6.550781 -15.914062 7.15625 -15.875 C 7.863281 -15.8125 8.5 -15.695312 9.0625 -15.53125 C 9.625 -15.363281 10.101562 -15.128906 10.5 -14.828125 C 10.894531 -14.535156 11.191406 -14.1875 11.390625 -13.78125 C 11.585938 -13.375 11.664062 -12.914062 11.625 -12.40625 C 11.582031 -12 11.414062 -11.660156 11.125 -11.390625 C 10.84375 -11.117188 10.46875 -11.003906 10 -11.046875 C 9.539062 -11.078125 9.203125 -11.195312 8.984375 -11.40625 C 8.765625 -11.625 8.671875 -11.90625 8.703125 -12.25 C 8.710938 -12.46875 8.773438 -12.632812 8.890625 -12.75 C 9.015625 -12.863281 9.144531 -12.953125 9.28125 -13.015625 C 9.425781 -13.085938 9.554688 -13.144531 9.671875 -13.1875 C 9.785156 -13.238281 9.847656 -13.316406 9.859375 -13.421875 C 9.878906 -13.710938 9.738281 -13.957031 9.4375 -14.15625 C 9.144531 -14.351562 8.75 -14.472656 8.25 -14.515625 Z M 8.25 -14.515625 "/></g></g></g><g fill="#ffffff" fill-opacity="1"><g transform="translate(188.042884, 303.242846)"><g/></g></g><g fill="#ffffff" fill-opacity="1"><g transform="translate(200.478169, 302.770697)"><g><path d="M 9.125 -10.28125 C 9.101562 -10.394531 9.0625 -10.625 9 -10.96875 C 8.945312 -11.320312 8.867188 -11.722656 8.765625 -12.171875 C 8.671875 -12.617188 8.550781 -13.09375 8.40625 -13.59375 C 8.269531 -14.09375 8.109375 -14.550781 7.921875 -14.96875 C 7.609375 -15.25 7.273438 -15.488281 6.921875 -15.6875 C 6.578125 -15.894531 6.164062 -15.957031 5.6875 -15.875 C 4.875 -15.726562 4.367188 -15.09375 4.171875 -13.96875 C 3.972656 -12.84375 4.066406 -11.171875 4.453125 -8.953125 C 4.617188 -7.984375 4.816406 -7.097656 5.046875 -6.296875 C 5.285156 -5.503906 5.546875 -4.832031 5.828125 -4.28125 C 6.109375 -3.738281 6.421875 -3.328125 6.765625 -3.046875 C 7.109375 -2.773438 7.472656 -2.675781 7.859375 -2.75 C 9.523438 -3.03125 9.945312 -5.539062 9.125 -10.28125 Z M 7.75 -17.109375 C 7.375 -18.117188 6.929688 -19.039062 6.421875 -19.875 C 5.910156 -20.707031 5.351562 -21.40625 4.75 -21.96875 C 4.144531 -22.539062 3.492188 -22.957031 2.796875 -23.21875 C 2.109375 -23.488281 1.398438 -23.5625 0.671875 -23.4375 C 0.253906 -23.363281 -0.113281 -23.25 -0.4375 -23.09375 C -0.757812 -22.9375 -1.03125 -22.765625 -1.25 -22.578125 C -1.46875 -22.390625 -1.648438 -22.210938 -1.796875 -22.046875 C -1.941406 -21.890625 -2.046875 -21.78125 -2.109375 -21.71875 L -2.59375 -22.1875 C -2.40625 -22.5625 -2.15625 -22.921875 -1.84375 -23.265625 C -1.539062 -23.609375 -1.191406 -23.910156 -0.796875 -24.171875 C -0.398438 -24.441406 0.0195312 -24.671875 0.46875 -24.859375 C 0.925781 -25.054688 1.390625 -25.195312 1.859375 -25.28125 C 3.390625 -25.550781 4.796875 -25.453125 6.078125 -24.984375 C 7.359375 -24.515625 8.492188 -23.734375 9.484375 -22.640625 C 10.472656 -21.546875 11.316406 -20.164062 12.015625 -18.5 C 12.710938 -16.84375 13.242188 -14.957031 13.609375 -12.84375 C 13.910156 -11.132812 14 -9.597656 13.875 -8.234375 C 13.75 -6.867188 13.4375 -5.691406 12.9375 -4.703125 C 12.445312 -3.710938 11.78125 -2.914062 10.9375 -2.3125 C 10.101562 -1.71875 9.109375 -1.320312 7.953125 -1.125 C 7.160156 -0.976562 6.320312 -0.972656 5.4375 -1.109375 C 4.5625 -1.253906 3.734375 -1.59375 2.953125 -2.125 C 2.179688 -2.664062 1.488281 -3.421875 0.875 -4.390625 C 0.269531 -5.359375 -0.160156 -6.597656 -0.421875 -8.109375 C -0.648438 -9.421875 -0.664062 -10.617188 -0.46875 -11.703125 C -0.28125 -12.785156 0.0625 -13.726562 0.5625 -14.53125 C 1.0625 -15.34375 1.691406 -16.003906 2.453125 -16.515625 C 3.210938 -17.023438 4.050781 -17.359375 4.96875 -17.515625 C 5.3125 -17.578125 5.628906 -17.601562 5.921875 -17.59375 C 6.210938 -17.582031 6.46875 -17.550781 6.6875 -17.5 C 6.90625 -17.457031 7.101562 -17.398438 7.28125 -17.328125 C 7.457031 -17.253906 7.613281 -17.179688 7.75 -17.109375 Z M 7.75 -17.109375 "/></g></g></g><g fill="#ffffff" fill-opacity="1"><g transform="translate(222.232455, 298.452337)"><g><path d="M 3.28125 -8.859375 C 3.382812 -8.546875 3.550781 -8.21875 3.78125 -7.875 C 4.007812 -7.53125 4.28125 -7.203125 4.59375 -6.890625 C 4.90625 -6.578125 5.253906 -6.296875 5.640625 -6.046875 C 6.023438 -5.804688 6.4375 -5.613281 6.875 -5.46875 C 7.3125 -5.320312 7.765625 -5.238281 8.234375 -5.21875 C 8.710938 -5.207031 9.195312 -5.289062 9.6875 -5.46875 C 10.039062 -5.59375 10.347656 -5.75 10.609375 -5.9375 C 10.878906 -6.125 11.117188 -6.332031 11.328125 -6.5625 C 11.546875 -6.789062 11.738281 -7.035156 11.90625 -7.296875 C 12.082031 -7.566406 12.253906 -7.859375 12.421875 -8.171875 L 12.921875 -7.921875 C 12.796875 -7.535156 12.617188 -7.097656 12.390625 -6.609375 C 12.171875 -6.117188 11.863281 -5.617188 11.46875 -5.109375 C 11.082031 -4.597656 10.585938 -4.117188 9.984375 -3.671875 C 9.390625 -3.222656 8.660156 -2.847656 7.796875 -2.546875 C 6.929688 -2.234375 6.03125 -2.085938 5.09375 -2.109375 C 4.15625 -2.128906 3.257812 -2.335938 2.40625 -2.734375 C 1.5625 -3.140625 0.78125 -3.738281 0.0625 -4.53125 C -0.65625 -5.332031 -1.238281 -6.359375 -1.6875 -7.609375 C -2.007812 -8.515625 -2.1875 -9.382812 -2.21875 -10.21875 C -2.257812 -11.050781 -2.191406 -11.835938 -2.015625 -12.578125 C -1.835938 -13.328125 -1.570312 -14.019531 -1.21875 -14.65625 C -0.863281 -15.300781 -0.453125 -15.878906 0.015625 -16.390625 C 0.492188 -16.898438 1.003906 -17.335938 1.546875 -17.703125 C 2.085938 -18.066406 2.640625 -18.347656 3.203125 -18.546875 C 3.941406 -18.804688 4.609375 -18.953125 5.203125 -18.984375 C 5.804688 -19.023438 6.335938 -18.972656 6.796875 -18.828125 C 7.253906 -18.691406 7.632812 -18.476562 7.9375 -18.1875 C 8.238281 -17.894531 8.460938 -17.5625 8.609375 -17.1875 C 8.773438 -16.71875 8.789062 -16.25 8.65625 -15.78125 C 8.519531 -15.3125 8.273438 -14.863281 7.921875 -14.4375 Z M 5.203125 -12.953125 C 5.296875 -13.078125 5.367188 -13.191406 5.421875 -13.296875 C 5.484375 -13.398438 5.519531 -13.507812 5.53125 -13.625 C 5.550781 -13.75 5.539062 -13.894531 5.5 -14.0625 C 5.46875 -14.226562 5.410156 -14.425781 5.328125 -14.65625 C 5.242188 -14.894531 5.117188 -15.15625 4.953125 -15.4375 C 4.796875 -15.726562 4.601562 -15.984375 4.375 -16.203125 C 4.15625 -16.429688 3.914062 -16.597656 3.65625 -16.703125 C 3.394531 -16.804688 3.125 -16.8125 2.84375 -16.71875 C 2.488281 -16.59375 2.21875 -16.375 2.03125 -16.0625 C 1.851562 -15.757812 1.742188 -15.410156 1.703125 -15.015625 C 1.660156 -14.628906 1.671875 -14.203125 1.734375 -13.734375 C 1.796875 -13.273438 1.878906 -12.816406 1.984375 -12.359375 C 2.085938 -11.898438 2.203125 -11.46875 2.328125 -11.0625 C 2.460938 -10.65625 2.582031 -10.304688 2.6875 -10.015625 Z M 5.203125 -12.953125 "/></g></g></g><g fill="#ffffff" fill-opacity="1"><g transform="translate(240.902191, 291.203739)"><g/></g></g><g fill="#ffffff" fill-opacity="1"><g transform="translate(252.466564, 285.57987)"><g><path d="M 10.859375 -14.828125 C 10.554688 -15.835938 10.210938 -16.953125 9.828125 -18.171875 C 9.453125 -19.390625 9.035156 -20.601562 8.578125 -21.8125 C 8.128906 -23.019531 7.648438 -24.160156 7.140625 -25.234375 C 6.640625 -26.316406 6.113281 -27.226562 5.5625 -27.96875 C 5.144531 -28.519531 4.757812 -28.953125 4.40625 -29.265625 C 4.050781 -29.578125 3.726562 -29.820312 3.4375 -30 C 3.15625 -30.1875 2.921875 -30.332031 2.734375 -30.4375 C 2.546875 -30.539062 2.398438 -30.65625 2.296875 -30.78125 C 2.160156 -30.96875 2.09375 -31.15625 2.09375 -31.34375 C 2.101562 -31.539062 2.148438 -31.734375 2.234375 -31.921875 C 2.328125 -32.109375 2.441406 -32.285156 2.578125 -32.453125 C 2.722656 -32.617188 2.867188 -32.757812 3.015625 -32.875 C 3.359375 -33.125 3.679688 -33.28125 3.984375 -33.34375 C 4.285156 -33.414062 4.578125 -33.367188 4.859375 -33.203125 C 5.003906 -33.097656 5.140625 -32.988281 5.265625 -32.875 C 5.390625 -32.757812 5.503906 -32.640625 5.609375 -32.515625 C 5.722656 -32.398438 5.820312 -32.28125 5.90625 -32.15625 C 6 -32.039062 6.066406 -31.953125 6.109375 -31.890625 C 6.367188 -31.535156 6.671875 -31.003906 7.015625 -30.296875 C 7.359375 -29.585938 7.71875 -28.769531 8.09375 -27.84375 C 8.476562 -26.914062 8.867188 -25.910156 9.265625 -24.828125 C 9.660156 -23.742188 10.050781 -22.644531 10.4375 -21.53125 C 10.832031 -20.425781 11.203125 -19.335938 11.546875 -18.265625 C 11.898438 -17.191406 12.222656 -16.195312 12.515625 -15.28125 C 12.804688 -14.363281 13.054688 -13.550781 13.265625 -12.84375 C 13.484375 -12.144531 13.632812 -11.625 13.71875 -11.28125 C 13.789062 -11.019531 13.8125 -10.785156 13.78125 -10.578125 C 13.757812 -10.378906 13.695312 -10.191406 13.59375 -10.015625 C 13.5 -9.847656 13.375 -9.691406 13.21875 -9.546875 C 13.0625 -9.398438 12.894531 -9.257812 12.71875 -9.125 C 12.375 -8.863281 12.070312 -8.691406 11.8125 -8.609375 C 11.550781 -8.523438 11.316406 -8.476562 11.109375 -8.46875 C 10.898438 -8.46875 10.71875 -8.507812 10.5625 -8.59375 C 10.414062 -8.675781 10.289062 -8.75 10.1875 -8.8125 L -5.828125 -20.34375 C -6.140625 -20.550781 -6.414062 -20.722656 -6.65625 -20.859375 C -6.90625 -20.992188 -7.144531 -21.070312 -7.375 -21.09375 C -7.613281 -21.113281 -7.847656 -21.078125 -8.078125 -20.984375 C -8.316406 -20.898438 -8.582031 -20.753906 -8.875 -20.546875 C -9.113281 -20.359375 -9.34375 -20.09375 -9.5625 -19.75 C -9.789062 -19.40625 -9.960938 -19.015625 -10.078125 -18.578125 C -10.203125 -18.148438 -10.238281 -17.695312 -10.1875 -17.21875 C -10.132812 -16.738281 -9.945312 -16.28125 -9.625 -15.84375 C -9.414062 -15.570312 -9.21875 -15.378906 -9.03125 -15.265625 C -8.84375 -15.160156 -8.671875 -15.101562 -8.515625 -15.09375 C -8.359375 -15.082031 -8.222656 -15.101562 -8.109375 -15.15625 C -7.992188 -15.207031 -7.914062 -15.25 -7.875 -15.28125 C -7.664062 -15.4375 -7.519531 -15.601562 -7.4375 -15.78125 C -7.363281 -15.957031 -7.300781 -16.125 -7.25 -16.28125 C -7.195312 -16.4375 -7.144531 -16.582031 -7.09375 -16.71875 C -7.050781 -16.863281 -6.96875 -16.984375 -6.84375 -17.078125 C -6.738281 -17.160156 -6.613281 -17.222656 -6.46875 -17.265625 C -6.320312 -17.304688 -6.160156 -17.304688 -5.984375 -17.265625 C -5.816406 -17.234375 -5.632812 -17.160156 -5.4375 -17.046875 C -5.25 -16.929688 -5.070312 -16.757812 -4.90625 -16.53125 C -4.65625 -16.195312 -4.503906 -15.851562 -4.453125 -15.5 C -4.398438 -15.15625 -4.414062 -14.820312 -4.5 -14.5 C -4.582031 -14.1875 -4.722656 -13.890625 -4.921875 -13.609375 C -5.117188 -13.335938 -5.351562 -13.101562 -5.625 -12.90625 C -6.03125 -12.601562 -6.445312 -12.40625 -6.875 -12.3125 C -7.300781 -12.226562 -7.710938 -12.226562 -8.109375 -12.3125 C -8.503906 -12.394531 -8.878906 -12.554688 -9.234375 -12.796875 C -9.585938 -13.035156 -9.90625 -13.34375 -10.1875 -13.71875 C -10.84375 -14.601562 -11.242188 -15.5 -11.390625 -16.40625 C -11.535156 -17.3125 -11.492188 -18.191406 -11.265625 -19.046875 C -11.035156 -19.898438 -10.644531 -20.695312 -10.09375 -21.4375 C -9.550781 -22.1875 -8.898438 -22.84375 -8.140625 -23.40625 C -7.296875 -24.03125 -6.503906 -24.410156 -5.765625 -24.546875 C -5.035156 -24.691406 -4.351562 -24.6875 -3.71875 -24.53125 C -3.082031 -24.375 -2.476562 -24.113281 -1.90625 -23.75 C -1.332031 -23.394531 -0.796875 -23.03125 -0.296875 -22.65625 Z M 10.859375 -14.828125 "/></g></g></g><g fill="#ffffff" fill-opacity="1"><g transform="translate(275.852211, 266.961236)"><g><path d="M -5.421875 -6.078125 C -6.460938 -6.992188 -7.238281 -7.941406 -7.75 -8.921875 C -8.257812 -9.910156 -8.550781 -10.882812 -8.625 -11.84375 C -8.707031 -12.800781 -8.585938 -13.726562 -8.265625 -14.625 C -7.941406 -15.53125 -7.457031 -16.34375 -6.8125 -17.0625 C -6.175781 -17.789062 -5.441406 -18.378906 -4.609375 -18.828125 C -3.785156 -19.285156 -2.90625 -19.546875 -1.96875 -19.609375 C -1.03125 -19.671875 -0.046875 -19.515625 0.984375 -19.140625 C 2.015625 -18.773438 3.050781 -18.128906 4.09375 -17.203125 C 5.125 -16.296875 5.90625 -15.335938 6.4375 -14.328125 C 6.976562 -13.316406 7.296875 -12.320312 7.390625 -11.34375 C 7.492188 -10.363281 7.390625 -9.414062 7.078125 -8.5 C 6.773438 -7.582031 6.304688 -6.757812 5.671875 -6.03125 C 5.023438 -5.3125 4.273438 -4.734375 3.421875 -4.296875 C 2.578125 -3.867188 1.671875 -3.632812 0.703125 -3.59375 C -0.253906 -3.550781 -1.253906 -3.722656 -2.296875 -4.109375 C -3.347656 -4.503906 -4.390625 -5.160156 -5.421875 -6.078125 Z M 0.890625 -13.46875 C 0.253906 -14.03125 -0.375 -14.550781 -1 -15.03125 C -1.632812 -15.507812 -2.238281 -15.882812 -2.8125 -16.15625 C -3.382812 -16.425781 -3.90625 -16.566406 -4.375 -16.578125 C -4.851562 -16.585938 -5.265625 -16.394531 -5.609375 -16 C -5.953125 -15.625 -6.082031 -15.1875 -6 -14.6875 C -5.925781 -14.195312 -5.710938 -13.675781 -5.359375 -13.125 C -5.003906 -12.582031 -4.539062 -12.023438 -3.96875 -11.453125 C -3.40625 -10.890625 -2.804688 -10.332031 -2.171875 -9.78125 C -1.546875 -9.21875 -0.910156 -8.6875 -0.265625 -8.1875 C 0.378906 -7.695312 0.992188 -7.304688 1.578125 -7.015625 C 2.160156 -6.734375 2.703125 -6.582031 3.203125 -6.5625 C 3.703125 -6.550781 4.125 -6.734375 4.46875 -7.109375 C 4.8125 -7.503906 4.929688 -7.953125 4.828125 -8.453125 C 4.734375 -8.953125 4.5 -9.476562 4.125 -10.03125 C 3.75 -10.59375 3.273438 -11.164062 2.703125 -11.75 C 2.128906 -12.34375 1.523438 -12.914062 0.890625 -13.46875 Z M -10 -16.546875 L -10.28125 -22.515625 C -10.269531 -22.753906 -10.234375 -22.984375 -10.171875 -23.203125 C -10.109375 -23.421875 -10.015625 -23.609375 -9.890625 -23.765625 C -9.765625 -23.898438 -9.613281 -24.003906 -9.4375 -24.078125 C -9.257812 -24.148438 -9.070312 -24.179688 -8.875 -24.171875 C -8.6875 -24.171875 -8.5 -24.132812 -8.3125 -24.0625 C -8.125 -23.988281 -7.957031 -23.890625 -7.8125 -23.765625 C -7.613281 -23.585938 -7.492188 -23.363281 -7.453125 -23.09375 C -7.421875 -22.820312 -7.445312 -22.546875 -7.53125 -22.265625 L -9.453125 -16.484375 Z M -10 -16.546875 "/></g></g></g></svg>